<svg id="visual" viewBox="0 0 900 600" width="900" height="600" xmlns="http://www.w3.org/2000/svg" xmlns:xlink="http://www.w3.org/1999/xlink" version="1.1"><rect width="900" height="600" fill="#001829"></rect><g><g transform="translate(422 313)"><path d="M0 -13.1L11.4 -6.6L11.4 6.6L0 13.1L-11.4 6.6L-11.4 -6.6Z" fill="none" stroke="#6e6aa1" stroke-width="2"></path></g><g transform="translate(646 314)"><path d="M0 -10L8.7 -5L8.7 5L0 10L-8.7 5L-8.7 -5Z" fill="none" stroke="#6e6aa1" stroke-width="2"></path></g><g transform="translate(547 288)"><path d="M0 -1L0.9 -0.5L0.9 0.5L0 1L-0.9 0.5L-0.9 -0.5Z" fill="none" stroke="#6e6aa1" stroke-width="2"></path></g><g transform="translate(293 417)"><path d="M0 -8L6.9 -4L6.9 4L0 8L-6.9 4L-6.9 -4Z" fill="none" stroke="#6e6aa1" stroke-width="2"></path></g><g transform="translate(56 363)"><path d="M0 -1L0.9 -0.5L0.9 0.5L0 1L-0.9 0.5L-0.9 -0.5Z" fill="none" stroke="#6e6aa1" stroke-width="2"></path></g><g transform="translate(635 37)"><path d="M0 -12L10.4 -6L10.4 6L0 12L-10.4 6L-10.4 -6Z" fill="none" stroke="#6e6aa1" stroke-width="2"></path></g><g transform="translate(54 399)"><path d="M0 -5L4.3 -2.5L4.3 2.5L0 5L-4.3 2.5L-4.3 -2.5Z" fill="none" stroke="#6e6aa1" stroke-width="2"></path></g><g transform="translate(37 498)"><path d="M0 -8L6.9 -4L6.9 4L0 8L-6.9 4L-6.9 -4Z" fill="none" stroke="#6e6aa1" stroke-width="2"></path></g><g transform="translate(560 250)"><path d="M0 -4L3.5 -2L3.5 2L0 4L-3.5 2L-3.5 -2Z" fill="none" stroke="#6e6aa1" stroke-width="2"></path></g><g transform="translate(45 153)"><path d="M0 -12L10.4 -6L10.4 6L0 12L-10.4 6L-10.4 -6Z" fill="none" stroke="#6e6aa1" stroke-width="2"></path></g><g transform="translate(895 475)"><path d="M0 -11L9.5 -5.5L9.5 5.5L0 11L-9.5 5.5L-9.5 -5.5Z" fill="none" stroke="#6e6aa1" stroke-width="2"></path></g><g transform="translate(154 312)"><path d="M0 -9L7.8 -4.5L7.8 4.5L0 9L-7.8 4.5L-7.8 -4.5Z" fill="none" stroke="#6e6aa1" stroke-width="2"></path></g><g transform="translate(640 576)"><path d="M0 -9L7.8 -4.5L7.8 4.5L0 9L-7.8 4.5L-7.8 -4.5Z" fill="none" stroke="#6e6aa1" stroke-width="2"></path></g><g transform="translate(720 77)"><path d="M0 -8L6.9 -4L6.9 4L0 8L-6.9 4L-6.9 -4Z" fill="none" stroke="#6e6aa1" stroke-width="2"></path></g><g transform="translate(178 280)"><path d="M0 -3L2.6 -1.5L2.6 1.5L0 3L-2.6 1.5L-2.6 -1.5Z" fill="none" stroke="#6e6aa1" stroke-width="2"></path></g><g transform="translate(611 235)"><path d="M0 -4L3.5 -2L3.5 2L0 4L-3.5 2L-3.5 -2Z" fill="none" stroke="#6e6aa1" stroke-width="2"></path></g><g transform="translate(886 181)"><path d="M0 -6L5.2 -3L5.2 3L0 6L-5.2 3L-5.2 -3Z" fill="none" stroke="#6e6aa1" stroke-width="2"></path></g><g transform="translate(772 114)"><path d="M0 -12L10.4 -6L10.4 6L0 12L-10.4 6L-10.4 -6Z" fill="none" stroke="#6e6aa1" stroke-width="2"></path></g><g transform="translate(234 490)"><path d="M0 -4L3.5 -2L3.5 2L0 4L-3.5 2L-3.5 -2Z" fill="none" stroke="#6e6aa1" stroke-width="2"></path></g><g transform="translate(606 403)"><path d="M0 -12L10.4 -6L10.4 6L0 12L-10.4 6L-10.4 -6Z" fill="none" stroke="#6e6aa1" stroke-width="2"></path></g><g transform="translate(43 309)"><path d="M0 -1L0.9 -0.5L0.9 0.5L0 1L-0.9 0.5L-0.9 -0.5Z" fill="none" stroke="#6e6aa1" stroke-width="2"></path></g><g transform="translate(883 292)"><path d="M0 -10L8.7 -5L8.7 5L0 10L-8.7 5L-8.7 -5Z" fill="none" stroke="#6e6aa1" stroke-width="2"></path></g><g transform="translate(320 47)"><path d="M0 -8L6.9 -4L6.9 4L0 8L-6.9 4L-6.9 -4Z" fill="none" stroke="#6e6aa1" stroke-width="2"></path></g><g transform="translate(10 85)"><path d="M0 -9L7.8 -4.5L7.8 4.5L0 9L-7.8 4.5L-7.8 -4.5Z" fill="none" stroke="#6e6aa1" stroke-width="2"></path></g><g transform="translate(251 264)"><path d="M0 -11L9.5 -5.5L9.5 5.5L0 11L-9.5 5.5L-9.5 -5.5Z" fill="none" stroke="#6e6aa1" stroke-width="2"></path></g><g transform="translate(816 74)"><path d="M0 -1L0.9 -0.5L0.9 0.5L0 1L-0.9 0.5L-0.9 -0.5Z" fill="none" stroke="#6e6aa1" stroke-width="2"></path></g><g transform="translate(298 595)"><path d="M0 -3L2.6 -1.5L2.6 1.5L0 3L-2.6 1.5L-2.6 -1.5Z" fill="none" stroke="#6e6aa1" stroke-width="2"></path></g><g transform="translate(91 382)"><path d="M0 -11L9.5 -5.5L9.5 5.5L0 11L-9.5 5.5L-9.5 -5.5Z" fill="none" stroke="#6e6aa1" stroke-width="2"></path></g><g transform="translate(15 221)"><path d="M0 -1L0.9 -0.5L0.9 0.5L0 1L-0.9 0.5L-0.9 -0.5Z" fill="none" stroke="#6e6aa1" stroke-width="2"></path></g><g transform="translate(757 587)"><path d="M0 -3L2.6 -1.5L2.6 1.5L0 3L-2.6 1.5L-2.6 -1.5Z" fill="none" stroke="#6e6aa1" stroke-width="2"></path></g><g transform="translate(186 516)"><path d="M0 -8L6.9 -4L6.9 4L0 8L-6.9 4L-6.9 -4Z" fill="none" stroke="#6e6aa1" stroke-width="2"></path></g><g transform="translate(99 201)"><path d="M0 -10L8.7 -5L8.7 5L0 10L-8.7 5L-8.7 -5Z" fill="none" stroke="#6e6aa1" stroke-width="2"></path></g><g transform="translate(118 562)"><path d="M0 -6L5.2 -3L5.2 3L0 6L-5.2 3L-5.2 -3Z" fill="none" stroke="#6e6aa1" stroke-width="2"></path></g><g transform="translate(157 501)"><path d="M0 -12L10.4 -6L10.4 6L0 12L-10.4 6L-10.4 -6Z" fill="none" stroke="#6e6aa1" stroke-width="2"></path></g><g transform="translate(309 125)"><path d="M0 -5L4.3 -2.5L4.3 2.5L0 5L-4.3 2.5L-4.3 -2.5Z" fill="none" stroke="#6e6aa1" stroke-width="2"></path></g><g transform="translate(481 5)"><path d="M0 -4L3.5 -2L3.5 2L0 4L-3.5 2L-3.5 -2Z" fill="none" stroke="#6e6aa1" stroke-width="2"></path></g><g transform="translate(246 344)"><path d="M0 -5L4.3 -2.5L4.3 2.5L0 5L-4.3 2.5L-4.3 -2.5Z" fill="none" stroke="#6e6aa1" stroke-width="2"></path></g><g transform="translate(255 408)"><path d="M0 -3L2.6 -1.5L2.6 1.5L0 3L-2.6 1.5L-2.6 -1.5Z" fill="none" stroke="#6e6aa1" stroke-width="2"></path></g><g transform="translate(288 368)"><path d="M0 -2L1.7 -1L1.7 1L0 2L-1.7 1L-1.7 -1Z" fill="none" stroke="#6e6aa1" stroke-width="2"></path></g><g transform="translate(723 571)"><path d="M0 -11L9.5 -5.5L9.5 5.5L0 11L-9.5 5.5L-9.5 -5.5Z" fill="none" stroke="#6e6aa1" stroke-width="2"></path></g><g transform="translate(413 521)"><path d="M0 -10L8.7 -5L8.7 5L0 10L-8.7 5L-8.7 -5Z" fill="none" stroke="#6e6aa1" stroke-width="2"></path></g><g transform="translate(682 453)"><path d="M0 -11L9.5 -5.5L9.5 5.5L0 11L-9.5 5.5L-9.5 -5.5Z" fill="none" stroke="#6e6aa1" stroke-width="2"></path></g><g transform="translate(460 198)"><path d="M0 -2L1.7 -1L1.7 1L0 2L-1.7 1L-1.7 -1Z" fill="none" stroke="#6e6aa1" stroke-width="2"></path></g><g transform="translate(496 495)"><path d="M0 -7L6.1 -3.5L6.1 3.5L0 7L-6.1 3.5L-6.1 -3.5Z" fill="none" stroke="#6e6aa1" stroke-width="2"></path></g><g transform="translate(884 342)"><path d="M0 -10L8.7 -5L8.7 5L0 10L-8.7 5L-8.7 -5Z" fill="none" stroke="#6e6aa1" stroke-width="2"></path></g><g transform="translate(429 236)"><path d="M0 -3L2.6 -1.5L2.6 1.5L0 3L-2.6 1.5L-2.6 -1.5Z" fill="none" stroke="#6e6aa1" stroke-width="2"></path></g><g transform="translate(12 179)"><path d="M0 -11L9.5 -5.5L9.5 5.5L0 11L-9.5 5.5L-9.5 -5.5Z" fill="none" stroke="#6e6aa1" stroke-width="2"></path></g><g transform="translate(150 380)"><path d="M0 -11L9.5 -5.5L9.5 5.5L0 11L-9.5 5.5L-9.5 -5.5Z" fill="none" stroke="#6e6aa1" stroke-width="2"></path></g><g transform="translate(753 184)"><path d="M0 -11L9.5 -5.5L9.5 5.5L0 11L-9.5 5.5L-9.5 -5.5Z" fill="none" stroke="#6e6aa1" stroke-width="2"></path></g><g transform="translate(210 334)"><path d="M0 -9L7.8 -4.5L7.8 4.5L0 9L-7.8 4.5L-7.8 -4.5Z" fill="none" stroke="#6e6aa1" stroke-width="2"></path></g><g transform="translate(487 128)"><path d="M0 -11L9.5 -5.5L9.5 5.5L0 11L-9.5 5.5L-9.5 -5.5Z" fill="none" stroke="#6e6aa1" stroke-width="2"></path></g><g transform="translate(639 138)"><path d="M0 -10L8.7 -5L8.7 5L0 10L-8.7 5L-8.7 -5Z" fill="none" stroke="#6e6aa1" stroke-width="2"></path></g><g transform="translate(854 120)"><path d="M0 -9L7.8 -4.5L7.8 4.5L0 9L-7.8 4.5L-7.8 -4.5Z" fill="none" stroke="#6e6aa1" stroke-width="2"></path></g><g transform="translate(730 506)"><path d="M0 -5L4.3 -2.5L4.3 2.5L0 5L-4.3 2.5L-4.3 -2.5Z" fill="none" stroke="#6e6aa1" stroke-width="2"></path></g><g transform="translate(596 200)"><path d="M0 -5L4.3 -2.5L4.3 2.5L0 5L-4.3 2.5L-4.3 -2.5Z" fill="none" stroke="#6e6aa1" stroke-width="2"></path></g><g transform="translate(129 499)"><path d="M0 -4L3.5 -2L3.5 2L0 4L-3.5 2L-3.5 -2Z" fill="none" stroke="#6e6aa1" stroke-width="2"></path></g><g transform="translate(624 425)"><path d="M0 -9L7.8 -4.5L7.8 4.5L0 9L-7.8 4.5L-7.8 -4.5Z" fill="none" stroke="#6e6aa1" stroke-width="2"></path></g><g transform="translate(613 17)"><path d="M0 -3L2.6 -1.5L2.6 1.5L0 3L-2.6 1.5L-2.6 -1.5Z" fill="none" stroke="#6e6aa1" stroke-width="2"></path></g><g transform="translate(269 107)"><path d="M0 -11L9.5 -5.5L9.5 5.5L0 11L-9.5 5.5L-9.5 -5.5Z" fill="none" stroke="#6e6aa1" stroke-width="2"></path></g><g transform="translate(652 360)"><path d="M0 -12L10.4 -6L10.4 6L0 12L-10.4 6L-10.4 -6Z" fill="none" stroke="#6e6aa1" stroke-width="2"></path></g><g transform="translate(736 414)"><path d="M0 -11L9.5 -5.5L9.5 5.5L0 11L-9.5 5.5L-9.5 -5.5Z" fill="none" stroke="#6e6aa1" stroke-width="2"></path></g><g transform="translate(772 480)"><path d="M0 -9L7.8 -4.5L7.8 4.5L0 9L-7.8 4.5L-7.8 -4.5Z" fill="none" stroke="#6e6aa1" stroke-width="2"></path></g><g transform="translate(235 291)"><path d="M0 -7L6.1 -3.5L6.1 3.5L0 7L-6.1 3.5L-6.1 -3.5Z" fill="none" stroke="#6e6aa1" stroke-width="2"></path></g><g transform="translate(197 425)"><path d="M0 -2L1.7 -1L1.7 1L0 2L-1.7 1L-1.7 -1Z" fill="none" stroke="#6e6aa1" stroke-width="2"></path></g><g transform="translate(821 391)"><path d="M0 -3L2.6 -1.5L2.6 1.5L0 3L-2.6 1.5L-2.6 -1.5Z" fill="none" stroke="#6e6aa1" stroke-width="2"></path></g><g transform="translate(565 98)"><path d="M0 -4L3.5 -2L3.5 2L0 4L-3.5 2L-3.5 -2Z" fill="none" stroke="#6e6aa1" stroke-width="2"></path></g><g transform="translate(528 199)"><path d="M0 -11L9.5 -5.5L9.5 5.5L0 11L-9.5 5.5L-9.5 -5.5Z" fill="none" stroke="#6e6aa1" stroke-width="2"></path></g><g transform="translate(855 537)"><path d="M0 -8L6.9 -4L6.9 4L0 8L-6.9 4L-6.9 -4Z" fill="none" stroke="#6e6aa1" stroke-width="2"></path></g><g transform="translate(776 250)"><path d="M0 -1L0.9 -0.5L0.9 0.5L0 1L-0.9 0.5L-0.9 -0.5Z" fill="none" stroke="#6e6aa1" stroke-width="2"></path></g><g transform="translate(353 243)"><path d="M0 -2L1.7 -1L1.7 1L0 2L-1.7 1L-1.7 -1Z" fill="none" stroke="#6e6aa1" stroke-width="2"></path></g><g transform="translate(58 269)"><path d="M0 -7L6.1 -3.5L6.1 3.5L0 7L-6.1 3.5L-6.1 -3.5Z" fill="none" stroke="#6e6aa1" stroke-width="2"></path></g><g transform="translate(398 572)"><path d="M0 -9L7.8 -4.5L7.8 4.5L0 9L-7.8 4.5L-7.8 -4.5Z" fill="none" stroke="#6e6aa1" stroke-width="2"></path></g><g transform="translate(537 455)"><path d="M0 -6L5.2 -3L5.2 3L0 6L-5.2 3L-5.2 -3Z" fill="none" stroke="#6e6aa1" stroke-width="2"></path></g><g transform="translate(420 384)"><path d="M0 -9L7.8 -4.5L7.8 4.5L0 9L-7.8 4.5L-7.8 -4.5Z" fill="none" stroke="#6e6aa1" stroke-width="2"></path></g><g transform="translate(332 574)"><path d="M0 -7L6.1 -3.5L6.1 3.5L0 7L-6.1 3.5L-6.1 -3.5Z" fill="none" stroke="#6e6aa1" stroke-width="2"></path></g><g transform="translate(120 180)"><path d="M0 -4L3.5 -2L3.5 2L0 4L-3.5 2L-3.5 -2Z" fill="none" stroke="#6e6aa1" stroke-width="2"></path></g><g transform="translate(567 204)"><path d="M0 -4L3.5 -2L3.5 2L0 4L-3.5 2L-3.5 -2Z" fill="none" stroke="#6e6aa1" stroke-width="2"></path></g><g transform="translate(274 61)"><path d="M0 -5L4.3 -2.5L4.3 2.5L0 5L-4.3 2.5L-4.3 -2.5Z" fill="none" stroke="#6e6aa1" stroke-width="2"></path></g><g transform="translate(827 324)"><path d="M0 -5L4.3 -2.5L4.3 2.5L0 5L-4.3 2.5L-4.3 -2.5Z" fill="none" stroke="#6e6aa1" stroke-width="2"></path></g><g transform="translate(207 570)"><path d="M0 -10L8.7 -5L8.7 5L0 10L-8.7 5L-8.7 -5Z" fill="none" stroke="#6e6aa1" stroke-width="2"></path></g></g></svg>